<?xml version="1.0" encoding="utf-8"?>
<svg height="456" width="456" version="1.1" id="Layer_1" xmlns="http://www.w3.org/2000/svg" viewBox="0 0 496.158 496.158" fill="#000000">
  <g id="SVGRepo_bgCarrier" stroke-width="0"/>
  <g id="SVGRepo_tracerCarrier" stroke-linecap="round" stroke-linejoin="round"/>
  <g id="SVGRepo_iconCarrier">
    <path style="fill:#d8dbba;" d="M248.075 0C111.07 0 0 111.055 0 248.083c0 136.998 111.07 248.075 248.075 248.075 137.013 0 248.083 -111.078 248.083 -248.075C496.158 111.055 385.088 0 248.075 0"/>
    <path style="fill: rgb(206, 143, 32);" d="M 248.079 177.582 C 204.293 177.582 168.793 245.23 168.793 296.51 C 168.793 347.786 204.293 363.274 248.079 363.274 C 291.869 363.274 327.365 347.786 327.365 296.51 C 327.365 245.23 291.869 177.582 248.079 177.582"/>
    <path style="fill: rgb(244, 244, 244);" d="M 248.079 211.625 C 220.349 211.625 197.864 254.47 197.864 286.946 C 197.864 319.422 220.349 329.228 248.079 329.228 C 275.814 329.228 298.292 319.422 298.292 286.946 C 298.292 254.47 275.814 211.625 248.079 211.625"/>
    <path style="fill: rgb(175, 115, 27);" d="M 248.079 158.202 C 220.1 158.202 197.423 167.847 197.423 199.787 C 197.423 231.727 220.1 256.518 248.079 256.518 C 276.054 256.518 298.735 231.727 298.735 199.787 C 298.735 167.847 276.054 158.202 248.079 158.202"/>
    <g style="" transform="matrix(0.622563, 0, 0, 0.622563, 93.63633, 96.759628)">
      <path style="fill:#EAE2D6;" d="M245.176 211.226h-7.945c-1.323 0 -2.398 1.966 -2.398 4.388v24.757c0 2.425 1.075 4.392 2.398 4.392h7.945c1.323 0 2.398 -1.966 2.398 -4.392v-24.757c0 -2.421 -1.075 -4.388 -2.398 -4.388"/>
      <path style="fill:#EAE2D6;" d="M258.617 211.226h-7.948c-1.32 0 -2.395 1.966 -2.395 4.388v24.757c0 2.425 1.074 4.392 2.395 4.392h7.948c1.324 0 2.396 -1.966 2.396 -4.392v-24.757c0 -2.421 -1.072 -4.388 -2.396 -4.388"/>
    </g>
    <g style="" transform="matrix(0.622563, 0, 0, 0.622563, 93.63633, 96.759628)">
      <path style="fill:#BF801B;" d="M248.075 84.687c-51.583 0 -93.394 18.243 -93.394 78.643 0 25.966 7.742 49.415 20.645 67.734 5.352 -47.873 35.881 -62.891 72.749 -62.891 36.86 0 67.39 15.018 72.749 62.887 12.902 -18.315 20.645 -41.764 20.645 -67.73 0 -60.4 -41.818 -78.643 -93.394 -78.643"/>
      <path style="fill:#BF801B;" d="M212.474 88.088c-6.189 -17.038 -26.146 -35.23 -40.697 -29.944 -14.547 5.287 -18.181 32.044 -11.992 49.085 6.189 17.034 19.854 17.895 34.404 12.612 14.547 -5.286 24.474 -14.715 18.285 -31.753"/>
      <path style="fill:#BF801B;" d="M325.751 58.144c-14.552 -5.287 -34.508 12.906 -40.697 29.944s3.733 26.467 18.281 31.753c14.551 5.283 28.215 4.422 34.404 -12.612 6.19 -17.041 2.559 -43.798 -11.988 -49.085"/>
    </g>
    <g style="" transform="matrix(0.622563, 0, 0, 0.622563, 93.63633, 96.759628)">
      <path style="fill:#AF731B;" d="M342.842 202.501c-4.043 3.573 -8.075 7.291 -12.05 11.269 -41.171 41.167 -61.444 87.644 -45.287 103.802 13.997 13.997 50.75 0.62 87.098 -29.967 -4.729 -29.083 -15.183 -59.123 -29.761 -85.104"/>
      <path style="fill:#AF731B;" d="M165.725 213.77c-4.059 -4.059 -8.171 -7.85 -12.295 -11.483 -14.597 25.943 -25.078 55.971 -29.833 85.051 36.451 30.782 73.38 44.273 87.415 30.235 16.162 -16.159 -4.116 -62.635 -45.287 -103.803"/>
    </g>
    <g style="" transform="matrix(0.622563, 0, 0, 0.622563, 93.63633, 96.759628)">
      <path style="fill:#BF801B;" d="M289.56 113.006c-34.302 0 -62.104 27.802 -62.104 62.099 0 34.293 27.802 62.095 62.104 62.095 34.293 0 62.087 -27.802 62.087 -62.095 0 -34.297 -27.794 -62.099 -62.087 -62.099"/>
      <path style="fill:#BF801B;" d="M206.28 113.006c-34.301 0 -62.099 27.802 -62.099 62.099 0 34.293 27.798 62.095 62.099 62.095 34.29 0 62.096 -27.802 62.096 -62.095 0 -34.297 -27.806 -62.099 -62.096 -62.099"/>
    </g>
    <path cx="210.879" cy="140.789" rx="12.838" ry="16.628" d="M 232.915 184.41 C 232.915 187.156 232.072 189.789 230.574 191.73 C 229.075 193.671 227.042 194.762 224.922 194.762 C 222.802 194.762 220.769 193.671 219.271 191.73 C 217.772 189.789 216.93 187.156 216.93 184.41 C 216.933 178.696 220.51 174.065 224.922 174.065 C 229.334 174.065 232.912 178.696 232.915 184.41 Z" style=""/>
    <path d="M 274.12 174.058 C 269.71 174.058 266.133 178.692 266.133 184.41 C 266.133 190.127 269.71 194.762 274.12 194.762 C 278.535 194.762 282.113 190.127 282.113 184.41 C 282.113 178.692 278.535 174.058 274.12 174.058" style=""/>
    <g style="" transform="matrix(0.622563, 0, 0, 0.622563, 93.63633, 96.759628)">
      <path style="fill:#FFFFFF;" cx="294.899" cy="133.579" r="4.5" d="M299.399 133.579A4.5 4.5 0 0 1 294.899 138.079A4.5 4.5 0 0 1 290.399 133.579A4.5 4.5 0 0 1 299.399 133.579z"/>
      <path style="fill:#FFFFFF;" cx="215.399" cy="133.579" r="4.5" d="M219.899 133.579A4.5 4.5 0 0 1 215.399 138.079A4.5 4.5 0 0 1 210.899 133.579A4.5 4.5 0 0 1 219.899 133.579z"/>
    </g>
    <path style="fill: rgb(178, 117, 27);" d="M 263.563 213.218 C 263.563 213.218 256.79 210.065 247.762 210.065 C 238.734 210.065 232.568 213.218 232.568 213.218 C 231.471 214.49 231.471 216.552 232.568 217.824 L 246.081 233.513 C 247.179 234.784 248.953 234.784 250.051 233.513 L 263.563 217.824 C 264.662 216.552 264.662 214.49 263.563 213.218"/>
    <g style="" transform="matrix(0.622563, 0, 0, 0.622563, 93.63633, 96.759628)">
      <path style="fill:#AF731B;" d="M180.001 406.49c-17.975 0 -32.549 7.096 -32.549 15.848 0 8.756 65.091 8.756 65.091 0 0 -8.752 -14.571 -15.848 -32.542 -15.848"/>
      <path style="fill:#AF731B;" d="M317.259 406.49c-17.979 0 -32.549 7.096 -32.549 15.848 0 8.756 65.09 8.756 65.09 0 0 -8.752 -14.571 -15.848 -32.541 -15.848"/>
    </g>
  </g>
</svg>