<?xml version="1.0" encoding="UTF-8"?>
<svg version="1.1" xmlns="http://www.w3.org/2000/svg" width="512" height="512">
<path d="M0 0 C5.61024712 4.43390498 12.08206041 9.66233649 13.78125 16.90625 C13.87358292 19.27612829 13.87037665 21.10338994 13.1875 23.375 C12.68887451 23.80627197 12.19024902 24.23754395 11.67651367 24.68188477 C9.6699942 26.96344118 9.80053764 28.36742162 9.7890625 31.375 C9.78519531 32.344375 9.78132813 33.31375 9.77734375 34.3125 C9.78894531 35.323125 9.80054688 36.33375 9.8125 37.375 C9.80089844 38.385625 9.78929687 39.39625 9.77734375 40.4375 C9.78121094 41.406875 9.78507812 42.37625 9.7890625 43.375 C9.79413818 44.7053125 9.79413818 44.7053125 9.79931641 46.0625 C10.26677602 48.84726568 11.19027135 49.47967739 13.1875 51.375 C13.89976342 57.58186696 13.11291601 60.35919066 9.1875 65.375 C8.42805324 66.49364455 7.67771075 67.618535 6.9375 68.75 C6.36 69.61625 5.7825 70.4825 5.1875 71.375 C5.91453125 71.76429688 6.6415625 72.15359375 7.390625 72.5546875 C26.56060759 83.22106243 39.70609196 98.43446253 47.1640625 119.078125 C48.86458853 125.5627976 48.56928339 132.16451294 45.5 138.1875 C40.81611034 144.64367223 34.91013589 146.68311243 27.2875061 148.08979034 C18.92988391 149.22487016 10.31985456 148.80004365 1.90625 148.7734375 C-0.357138 148.77546211 -2.62052535 148.77837677 -4.88391113 148.78213501 C-9.61098485 148.7865401 -14.33788767 148.78018592 -19.06494141 148.76611328 C-25.09679013 148.74902272 -31.12823826 148.75887365 -37.16007233 148.77683067 C-41.82890797 148.78771763 -46.49765005 148.78419968 -51.16648865 148.7764473 C-53.38944039 148.77445885 -55.61240089 148.7768564 -57.83534241 148.78388596 C-87.5214351 148.85718052 -87.5214351 148.85718052 -95.8125 141.375 C-100.16376933 136.47837158 -101.63165629 131.94918829 -101.2890625 125.421875 C-98.35537796 106.6655312 -86.16362572 90.58294631 -71.453125 79.203125 C-67.11569064 76.20028583 -62.52246385 73.73893623 -57.8125 71.375 C-58.17601562 70.93671875 -58.53953125 70.4984375 -58.9140625 70.046875 C-68.05293798 58.51783208 -73.13772967 46.15640783 -71.8125 31.375 C-69.38525245 18.38833975 -63.62468522 8.53704861 -53.16796875 0.2890625 C-37.06523375 -10.6303887 -16.23893886 -11.03443714 0 0 Z " fill="#000101" transform="translate(284.8125,185.625)"/>
<path d="M0 0 C1.25039062 -0.02449219 2.50078125 -0.04898437 3.7890625 -0.07421875 C12.10668651 -0.10059599 18.28853476 0.44309793 24.34375 6.453125 C24.8078125 7.16984375 25.271875 7.8865625 25.75 8.625 C26.2346875 9.33140625 26.719375 10.0378125 27.21875 10.765625 C28.25 13.375 28.25 13.375 28.25 21.375 C52.01 21.375 75.77 21.375 100.25 21.375 C100.58 18.405 100.91 15.435 101.25 12.375 C104.47342991 6.27350766 108.72699429 2.55967157 115.25 0.375 C119.67862296 -0.06575113 124.11407826 0.00473993 128.5625 0 C129.76068359 -0.02449219 130.95886719 -0.04898437 132.19335938 -0.07421875 C140.49567646 -0.10166443 146.39213131 0.62139804 152.5625 6.625 C157.31535976 14.37040109 157.70627999 21.15008409 157.68359375 30.0546875 C157.6888356 31.2626297 157.69407745 32.4705719 157.69947815 33.71511841 C157.70588091 36.2617313 157.70458409 38.80837384 157.69604492 41.35498047 C157.68754237 45.2306846 157.71631226 49.10491019 157.74804688 52.98046875 C157.74965938 55.46354123 157.74908042 57.94661629 157.74609375 60.4296875 C157.75732773 61.57790985 157.76856171 62.7261322 157.78013611 63.90914917 C157.71192696 71.867908 156.73656629 79.51367803 151.21484375 85.62890625 C150.54582031 86.06074219 149.87679687 86.49257813 149.1875 86.9375 C148.51589844 87.39253906 147.84429687 87.84757812 147.15234375 88.31640625 C141.45710041 91.4856279 134.89436028 90.67953924 128.5625 90.75 C127.30759766 90.78738281 126.05269531 90.82476562 124.75976562 90.86328125 C117.25908823 90.93437772 111.97417301 90.47921965 106.25 85.375 C101.88338941 80.8934786 100.25 76.61464155 100.25 70.375 C76.49 70.375 52.73 70.375 28.25 70.375 C28.25 72.685 28.25 74.995 28.25 77.375 C27.21875 79.88671875 27.21875 79.88671875 25.75 82.0625 C25.2859375 82.78824219 24.821875 83.51398438 24.34375 84.26171875 C19.41021232 89.24127824 14.54057178 90.60141051 7.58984375 90.90625 C5.1223964 90.91680028 2.65477695 90.90585703 0.1875 90.875 C-1.05322266 90.89046875 -2.29394531 90.9059375 -3.57226562 90.921875 C-11.57213649 90.88763264 -16.39811447 90.26879232 -22.45703125 84.84765625 C-26.43712272 79.77057844 -27.99291139 75.86388304 -28.04052734 69.42651367 C-28.05328705 68.25146774 -28.06604675 67.07642181 -28.07919312 65.86576843 C-28.08253159 63.97348259 -28.08253159 63.97348259 -28.0859375 62.04296875 C-28.0925943 60.73725418 -28.0992511 59.43153961 -28.10610962 58.08625793 C-28.11806192 55.32496841 -28.12179266 52.56380379 -28.12060547 49.80249023 C-28.12040259 46.28201824 -28.1476803 42.76235631 -28.18214989 39.24207592 C-28.20987804 35.86319616 -28.20857109 32.48446061 -28.2109375 29.10546875 C-28.22530853 27.85001755 -28.23967957 26.59456635 -28.25448608 25.30107117 C-28.21511835 17.72278304 -27.7981667 11.60458267 -22.30258179 5.86271667 C-15.19845066 -0.37265078 -9.11848114 0.00928562 0 0 Z " fill="#000000" transform="translate(193.75,400.625)"/>
<path d="M0 0 C0.82148529 -0.00571014 1.64297058 -0.01142029 2.48934937 -0.01730347 C3.38708069 -0.01842133 4.28481201 -0.01953918 5.20974731 -0.02069092 C6.15800385 -0.02565582 7.10626038 -0.03062073 8.08325195 -0.03573608 C11.22454551 -0.05035782 14.36578858 -0.05715944 17.5071106 -0.06268311 C19.68802899 -0.06843416 21.86894736 -0.0741919 24.04986572 -0.07995605 C28.62464636 -0.09046581 33.19940942 -0.09630877 37.77420044 -0.09979248 C43.63768943 -0.10527978 49.50094651 -0.1293131 55.36436272 -0.15776443 C59.86992066 -0.17638198 64.37542261 -0.18159593 68.88101578 -0.18312836 C71.04277948 -0.18615696 73.20454215 -0.19419247 75.36626816 -0.20731354 C78.38979533 -0.22435672 81.41275417 -0.22249798 84.43630981 -0.21600342 C85.32999268 -0.2252182 86.22367554 -0.23443298 87.1444397 -0.243927 C92.36765244 -0.20875835 96.07086536 0.25888416 99.9524231 4.14044189 C101.0581395 14.00788236 98.62518504 23.90452755 96.8117981 33.54669189 C96.48449255 35.32055064 96.15778219 37.0945193 95.83163452 38.86859131 C95.14861047 42.57126389 94.45858825 46.27254308 93.76345825 49.97296143 C92.87838861 54.68746969 92.01068667 59.40497594 91.14822006 64.12366486 C90.47737105 67.78321467 89.797361 71.44101745 89.11466217 75.09837341 C88.79139965 76.83598304 88.47087484 78.57410453 88.15328217 80.3127594 C83.61399003 105.08247147 83.61399003 105.08247147 78.2649231 110.20294189 C71.42507025 114.20361054 63.97129863 114.44333169 56.2024231 114.40606689 C55.3042688 114.40798035 54.4061145 114.4098938 53.48074341 114.41186523 C51.59499834 114.41321711 49.70924365 114.40959096 47.82351685 114.40118408 C44.96002012 114.39047032 42.09715064 114.40111355 39.2336731 114.41387939 C37.38992173 114.41255762 35.54617075 114.40999486 33.7024231 114.40606689 C32.85840942 114.41011536 32.01439575 114.41416382 31.14480591 114.41833496 C23.94838343 114.36240329 15.69448369 114.08422771 10.21029663 108.83441162 C3.99270539 100.46122382 3.10881029 87.74297752 1.2805481 77.73419189 C0.95050303 75.96012456 0.61990605 74.18615983 0.28878784 72.41229248 C-0.39967172 68.71194839 -1.08129408 65.01042858 -1.75802612 61.30792236 C-2.62122361 56.58847838 -3.50178569 51.87247209 -4.38755417 47.15721893 C-5.0724491 43.50030206 -5.74789319 39.84168689 -6.42060089 36.18251038 C-6.74141465 34.44383437 -7.06511807 32.70568874 -7.39189911 30.96812439 C-11.26263551 10.32181583 -11.26263551 10.32181583 -10.0475769 4.14044189 C-7.30777493 0.61224461 -4.30430809 0.01794701 0 0 Z " fill="#010202" transform="translate(211.04757690429688,20.85955810546875)"/>
<path d="M0 0 C3.20779512 2.19480719 3.88787953 3.41697353 4.625 7.25 C3.88695856 11.67824865 2.33409997 13.55236386 -0.46484375 16.93359375 C-2.79577413 20.07115653 -3.80944004 23.29603567 -5 27 C-3.96552734 26.85691406 -3.96552734 26.85691406 -2.91015625 26.7109375 C4.84851122 25.79564888 11.03216073 25.97559221 18.0625 29.5625 C28.78387415 38.4589594 33.4664445 48.25479887 35 62 C36.29648021 78.51306366 31.83135753 93.88094993 22.34375 107.3515625 C17.10298795 113.18319479 8.67803279 117.52763487 1 119 C-1.50147819 119.11797739 -3.97453635 119.18775213 -6.4765625 119.203125 C-7.564496 119.21167511 -7.564496 119.21167511 -8.67440796 119.22039795 C-10.20919344 119.22982809 -11.74399899 119.23637403 -13.27880859 119.24023438 C-15.59640207 119.24988097 -17.91308538 119.28089707 -20.23046875 119.3125 C-33.60040918 119.40934511 -42.96701776 117.62365831 -52.83984375 108.25390625 C-63.82374001 96.69317518 -67.51692328 81.50503891 -67.35375977 65.90698242 C-67.00394908 55.66537204 -64.75522921 46.52050451 -59 38 C-58.278125 36.9275 -57.55625 35.855 -56.8125 34.75 C-51.11154471 29.17573261 -44.40531378 26.38210365 -36.46484375 25.91796875 C-31.80323348 26.0731095 -27.18975847 26.90512077 -23 29 C-22.9175 27.72125 -22.835 26.4425 -22.75 25.125 C-21.77536903 16.51575977 -18.22148325 7.24092302 -11.3359375 1.6484375 C-7.29573098 -0.96790769 -4.53045787 -1.61082946 0 0 Z " fill="#010000" transform="translate(452,182)"/>
<path d="M0 0 C0.721875 0.391875 1.44375 0.78375 2.1875 1.1875 C4.57505536 0.39686413 4.57505536 0.39686413 7.1875 -0.8125 C17.91298585 -5.07778755 27.7356317 -6.67179458 38.875 -2.8515625 C48.15471126 1.31803749 54.4896283 8.77559738 58.42578125 17.9765625 C62.67629366 30.31394723 60.05987951 42.82150363 54.7265625 54.34375 C50.17288967 63.12748439 50.17288967 63.12748439 46.1875 65.1875 C44.9190625 65.13464844 43.650625 65.08179688 42.34375 65.02734375 C38.96581005 64.90121937 37.37448128 65.38242895 34.78125 67.56640625 C33.72901682 68.60680181 32.69779325 69.66883159 31.6875 70.75 C31.15125 71.26369141 30.615 71.77738281 30.0625 72.30664062 C27.17086596 75.27572914 26.21764162 76.49499635 26.03125 80.77734375 C26.0828125 81.90269531 26.134375 83.02804687 26.1875 84.1875 C24.25150333 88.72268944 21.1838605 91.01091615 17.25 93.875 C16.20972656 94.64199219 15.16945313 95.40898437 14.09765625 96.19921875 C9.12073953 99.59955514 5.36880563 101.25949275 -0.8125 100.1875 C-3.66840956 98.90822522 -6.10330868 97.21570666 -8.625 95.375 C-9.60629883 94.69727539 -9.60629883 94.69727539 -10.60742188 94.00585938 C-18.56716497 88.43647836 -18.56716497 88.43647836 -19.5 83.6875 C-19.8125 80.1875 -19.8125 80.1875 -19.8125 77.1875 C-21.60067275 75.23386321 -23.3836665 73.42824606 -25.3125 71.625 C-27.19772061 69.84863119 -29.0128789 68.05431475 -30.8125 66.1875 C-30.8125 65.5275 -30.8125 64.8675 -30.8125 64.1875 C-32.029375 64.414375 -33.24625 64.64125 -34.5 64.875 C-37.30039538 65.39710761 -38.64498535 65.25455805 -41.3203125 64.18359375 C-44.71212712 61.46695226 -46.16919361 58.44673029 -48 54.5625 C-48.52207031 53.47727051 -48.52207031 53.47727051 -49.0546875 52.37011719 C-54.27236749 41.24006611 -55.93464685 29.45314245 -51.8515625 17.56640625 C-47.49666858 7.59599122 -40.873061 1.13661715 -30.92578125 -3.05078125 C-20.90835154 -6.66149991 -9.01704893 -5.81098709 0 0 Z " fill="#FD9098" transform="translate(78.8125,206.8125)"/>
<path d="M0 0 C0.92804443 0.00563965 1.85608887 0.0112793 2.81225586 0.01708984 C19.13605997 0.30529965 32.4666292 6.00185009 44.0546875 17.453125 C50.77494442 24.58244104 58.48543086 34.48180574 58.87890625 44.640625 C58.83636719 45.52234375 58.79382813 46.4040625 58.75 47.3125 C52.55737675 50.01632299 47.58289315 50.74277382 40.86499023 50.68481445 C39.90946259 50.68846512 38.95393494 50.69211578 37.9694519 50.69587708 C34.83231455 50.70393817 31.69570093 50.69041024 28.55859375 50.67578125 C26.36719259 50.67526215 24.17579096 50.67578177 21.98439026 50.67729187 C17.40073661 50.67720235 12.81725957 50.66681282 8.23364258 50.64868164 C2.36715774 50.62598199 -3.49906959 50.62545505 -9.36558628 50.63219929 C-13.88753028 50.63554516 -18.40941589 50.6288977 -22.9313488 50.61907005 C-25.09423454 50.61522947 -27.25712678 50.61406509 -29.42001534 50.6156559 C-32.44493046 50.61602795 -35.46951887 50.60336735 -38.49438477 50.5871582 C-39.38237259 50.58963562 -40.27036041 50.59211304 -41.18525696 50.59466553 C-53.06914461 50.49335539 -53.06914461 50.49335539 -56.25 47.3125 C-57.09215638 36.74606911 -50.20970375 26.45463297 -43.5390625 18.625 C-31.44551089 6.40762363 -17.10225458 -0.10868432 0 0 Z " fill="#00ACCC" transform="translate(257.25,267.6875)"/>
<path d="M0 0 C4.63882849 1.86516694 8.84569473 4.23046315 13 7 C18.11540059 7 21.49676352 5.32156637 26 2.9375 C30.56209519 0.56817216 33.76659838 -0.96123703 39 0 C44.17128848 1.97001466 46.61478688 6.22039986 49 11 C50.25621716 15.25782742 50.18389995 19.34353894 50.1875 23.75 C50.19974609 24.5234375 50.21199219 25.296875 50.22460938 26.09375 C50.24920442 35.86618303 47.80183565 45.82302094 41 53.15625 C33.84406432 59.57554524 27.44148905 59.30657565 18.16894531 59.4050293 C16.65015816 59.42652767 15.13149216 59.46053398 13.61328125 59.50756836 C-1.55582929 59.97250292 -1.55582929 59.97250292 -8.34375 54.71826172 C-16.0926746 46.67920934 -18.5756111 35.36310361 -18.5 24.5625 C-18.49572998 23.63961182 -18.49145996 22.71672363 -18.48706055 21.76586914 C-18.27406985 13.26355131 -16.31613953 7.7642665 -10.6875 1.375 C-7.00035395 -0.51144682 -3.99089456 -0.82165476 0 0 Z " fill="#EB526B" transform="translate(420,225)"/>
<path d="M0 0 C0.721875 0.391875 1.44375 0.78375 2.1875 1.1875 C4.57505536 0.39686413 4.57505536 0.39686413 7.1875 -0.8125 C17.91298585 -5.07778755 27.7356317 -6.67179458 38.875 -2.8515625 C48.15471126 1.31803749 54.4896283 8.77559738 58.42578125 17.9765625 C62.67629366 30.31394723 60.05987951 42.82150363 54.7265625 54.34375 C50.43441695 62.62301554 50.43441695 62.62301554 46.1875 65.1875 C42.6875 65.6875 42.6875 65.6875 39.1875 65.1875 C36.20498701 62.66383516 35.34078616 60.93860219 34.5625 57.125 C35.35784737 52.1143116 37.39156723 48.30380028 39.77734375 43.859375 C43.08284563 37.59631881 42.86234327 31.11998089 42.1875 24.1875 C40.63505492 19.74429512 38.3261398 17.09841184 34.6875 14.1875 C28.57918025 12.44226579 21.58600815 11.46110129 15.7421875 14.4296875 C13.78337621 15.92672579 11.9846791 17.50184037 10.1875 19.1875 C6.6026347 21.68856881 4.56133377 22.70055968 0.1875 22.1875 C-2.27734375 20.5078125 -2.27734375 20.5078125 -4.75 18.3125 C-9.35491139 14.24032797 -13.15869328 12.42444703 -19.3125 11.875 C-25.70531983 12.44578749 -29.74420343 15.32814576 -33.8125 20.1875 C-36.87848073 26.31946146 -36.75583193 33.64187308 -35.01953125 40.16796875 C-33.68811064 43.94797899 -32.29717733 47.39652537 -30.19921875 50.8203125 C-28.41028885 53.87409142 -28.37605597 55.69594773 -28.8125 59.1875 C-29.875 62 -29.875 62 -31.8125 64.1875 C-35.47841324 65.27369651 -37.7103939 65.64510982 -41.27734375 64.1640625 C-44.72656996 61.47483528 -46.15891726 58.46853255 -48 54.5625 C-48.52207031 53.47727051 -48.52207031 53.47727051 -49.0546875 52.37011719 C-54.27236749 41.24006611 -55.93464685 29.45314245 -51.8515625 17.56640625 C-47.49666858 7.59599122 -40.873061 1.13661715 -30.92578125 -3.05078125 C-20.90835154 -6.66149991 -9.01704893 -5.81098709 0 0 Z " fill="#020101" transform="translate(78.8125,206.8125)"/>
<path d="M0 0 C5.07549487 2.94788843 8.57996266 7.31218468 12.203125 11.859375 C15.48987219 15.01889326 18.20705825 15.1875 22.625 15.1875 C23.85982184 18.89196553 23.77058202 22.3318008 23.75 26.1875 C23.75386719 26.91195312 23.75773437 27.63640625 23.76171875 28.3828125 C23.75581927 31.58032879 23.64305798 34.13332607 22.625 37.1875 C20.9853125 37.1565625 20.9853125 37.1565625 19.3125 37.125 C15.68115809 37.00205548 15.68115809 37.00205548 12.625 38.1875 C11.95347143 39.85221367 11.28749584 41.51917105 10.625 43.1875 C4.72416051 49.87185345 -1.06537136 53.66891252 -9.89453125 54.53125 C-20.44521215 54.95201494 -26.45877954 52.9177549 -34.1875 45.9375 C-40.79795899 38.74286092 -42.17980121 31.60093907 -41.87890625 21.9140625 C-40.78752012 13.84288133 -37.06297517 8.21526991 -30.8125 3.125 C-22.24580113 -3.12059686 -9.81839046 -4.30822857 0 0 Z " fill="#00ADCD" transform="translate(271.375,196.8125)"/>
<path d="M0 0 C9.45009518 0.16452044 18.22365204 3.4106774 27.07348633 6.46850586 C30.07364545 7.4685589 32.04772389 7.58426171 35.17895508 7.56616211 C36.65332031 7.56132813 36.65332031 7.56132813 38.1574707 7.55639648 C39.18163086 7.54801758 40.20579102 7.53963867 41.26098633 7.53100586 C42.29674805 7.52649414 43.33250977 7.52198242 44.3996582 7.51733398 C46.95765899 7.50554596 49.51554366 7.48909101 52.07348633 7.46850586 C51.93773193 8.17233398 51.80197754 8.87616211 51.66210938 9.60131836 C51.25703816 11.70227174 50.85219131 13.8032684 50.44750977 15.90429688 C49.98893448 18.28507232 49.5299485 20.6657687 49.07055664 23.04638672 C48.06473611 28.26844996 47.06188193 33.49046322 46.10864258 38.72241211 C45.97304932 39.46426758 45.83745605 40.20612305 45.69775391 40.97045898 C45.34582332 42.90802857 44.99855879 44.84644403 44.65161133 46.78491211 C44.07348633 49.46850586 44.07348633 49.46850586 43.07348633 50.46850586 C41.69188518 50.56128916 40.30560595 50.58597629 38.92089844 50.58203125 C38.04006088 50.58195572 37.15922333 50.58188019 36.25169373 50.58180237 C35.29440872 50.57664108 34.33712372 50.5714798 33.35083008 50.56616211 C32.37561905 50.56474716 31.40040802 50.56333221 30.39564514 50.56187439 C27.2673949 50.55625719 24.1392151 50.54370179 21.01098633 50.53100586 C18.89575298 50.52599307 16.78051852 50.52142979 14.6652832 50.51733398 C9.46799337 50.50628217 4.27074488 50.48952732 -0.92651367 50.46850586 C-2.70198588 47.09404658 -3.4920795 44.14695094 -4.14526367 40.37475586 C-4.35538086 39.17850586 -4.56549805 37.98225586 -4.78198242 36.74975586 C-5.10102539 34.87803711 -5.10102539 34.87803711 -5.42651367 32.96850586 C-5.63920898 31.75163086 -5.8519043 30.53475586 -6.07104492 29.28100586 C-6.49357259 26.85471203 -6.91158512 24.42762733 -7.32495117 21.99975586 C-7.71909669 19.68607049 -8.11989657 17.37350662 -8.52807617 15.06225586 C-8.71112305 14.01038086 -8.89416992 12.95850586 -9.08276367 11.87475586 C-9.24583008 10.94985352 -9.40889648 10.02495117 -9.5769043 9.07202148 C-9.92364363 6.48987887 -10.06126822 4.06995385 -9.92651367 1.46850586 C-7.64306269 -0.81494512 -3.06951555 0.04502003 0 0 Z " fill="#00DBF7" transform="translate(234.926513671875,67.531494140625)"/>
<path d="M0 0 C2.74874122 1.16130251 5.15118432 2.71644328 7.625 4.375 C8.32085205 4.82762207 9.0167041 5.28024414 9.73364258 5.74658203 C20.89527973 13.10778053 30.94975788 21.42896825 40.60302734 30.66601562 C41.79431246 31.80358673 42.99929764 32.92678224 44.20703125 34.046875 C56.94210092 46.18539355 67.13912673 61.64131234 75.5625 77 C75.89725342 77.59868896 76.23200684 78.19737793 76.5769043 78.81420898 C78.71991521 82.85584742 79.69207576 86.44162151 80 91 C78.64341319 94.59096508 77.60985739 95.68829511 74.1875 97.4375 C70.17828001 98.14500941 68.6372518 97.86642458 65 96 C62.89575356 93.18227825 61.42271098 90.08653242 59.875 86.9375 C51.48136027 70.83423262 41.2286985 57.21336312 28.39453125 44.3984375 C27.00288038 43.0045164 25.62582949 41.59507574 24.2890625 40.1484375 C15.43939548 30.71710223 4.26316317 23.56277583 -6.69580078 16.81665039 C-10.89827107 14.20345787 -10.89827107 14.20345787 -12 12 C-12.49055907 7.66672826 -12.47744439 5.67999656 -9.9375 2.0625 C-6.19019414 -0.5685871 -4.52434434 -0.4799253 0 0 Z " fill="#000000" transform="translate(350,77)"/>
<path d="M0 0 C3.41639845 1.9739191 4.72268412 3.18538459 6 6.9375 C6 10.79836333 5.3445756 11.92190075 3 15 C0.27600719 17.14477882 -2.6296163 18.96821657 -5.5625 20.8125 C-7.20392421 21.87697512 -8.8432657 22.94466894 -10.48046875 24.015625 C-11.26599121 24.52931641 -12.05151367 25.04300781 -12.86083984 25.57226562 C-38.1940642 42.48035693 -56.08477395 66.53571242 -69.95361328 93.20678711 C-71.4221439 95.72343605 -72.52111298 96.84468529 -75.3125 97.75 C-79.20663646 98.11224525 -81.55790439 96.89509383 -84.8125 94.875 C-86.78559736 91.75958312 -86.52037936 88.52548646 -86 85 C-84.70558567 81.59326622 -82.95997868 78.51759119 -81.125 75.375 C-80.62758301 74.49980713 -80.13016602 73.62461426 -79.61767578 72.72290039 C-75.21603244 65.10553062 -70.36210935 57.96631066 -65 51 C-64.35417969 50.13117188 -63.70835938 49.26234375 -63.04296875 48.3671875 C-51.14151184 33.01501231 -21.71539159 -2.12895996 0 0 Z " fill="#000000" transform="translate(173,77)"/>
<path d="M0 0 C3.21262414 3.46410157 5.37822703 7.30248166 7.625 11.4375 C14.61182254 23.92733541 23.06873558 34.73350303 33 45 C33.88558594 45.93714844 34.77117187 46.87429688 35.68359375 47.83984375 C41.04973467 53.39290395 46.63768796 58.2672295 52.84912109 62.82861328 C56.90895724 65.81791447 56.90895724 65.81791447 58 68 C58.49055907 72.33327174 58.47744439 74.32000344 55.9375 77.9375 C52.21824132 80.54889439 50.48032101 80.47783783 46 80 C42.9296875 78.234375 42.9296875 78.234375 39.875 75.75 C39.04476318 75.07880127 39.04476318 75.07880127 38.19775391 74.39404297 C19.09829526 58.73583104 3.19801247 40.72153771 -9.3125 19.375 C-9.69164551 18.74883789 -10.07079102 18.12267578 -10.46142578 17.47753906 C-13.14688421 12.69402632 -13.45121367 9.32996148 -13 4 C-9.95832051 -1.64883333 -5.82508312 -1.43072217 0 0 Z " fill="#000000" transform="translate(103,316)"/>
<path d="M0 0 C2.78007242 2.49493678 3.87296598 3.98810833 4.33984375 7.70703125 C3.90652194 11.9057702 2.2385325 14.93777351 0.125 18.5 C-0.48021484 19.54450317 -0.48021484 19.54450317 -1.09765625 20.61010742 C-5.29788947 27.728695 -10.00387847 34.42300998 -15 41 C-15.66 41.88558594 -16.32 42.77117187 -17 43.68359375 C-26.66260289 56.08267598 -39.77065202 71.8957124 -54 79 C-58.44685941 79.41421496 -60.24220424 79.53206936 -63.9375 76.9375 C-66 74 -66 74 -66.625 70.5 C-65.44937324 63.91649014 -58.61688159 59.88786241 -53.6875 55.6875 C-37.66508613 41.86170739 -24.08961166 25.62959691 -14.1875 6.8125 C-10.71357523 0.40934249 -7.42172107 -2.29398651 0 0 Z " fill="#000000" transform="translate(423,316)"/>
<path d="M0 0 C2.03125 -0.37231445 2.03125 -0.37231445 4.5 -0.36328125 C5.386875 -0.36263672 6.27375 -0.36199219 7.1875 -0.36132812 C8.5796875 -0.3371582 8.5796875 -0.3371582 10 -0.3125 C10.928125 -0.31572266 11.85625 -0.31894531 12.8125 -0.32226562 C19.73305861 -0.26694139 19.73305861 -0.26694139 22 2 C22.25396729 4.27709961 22.25396729 4.27709961 22.25878906 7.15234375 C22.26509338 8.22685791 22.27139771 9.30137207 22.27789307 10.40844727 C22.2738446 11.57303467 22.26979614 12.73762207 22.265625 13.9375 C22.26753845 15.12851318 22.2694519 16.31952637 22.27142334 17.54663086 C22.2727863 20.06852428 22.26908216 22.59042469 22.26074219 25.11230469 C22.25004453 28.98388349 22.26063406 32.85499822 22.2734375 36.7265625 C22.27211593 39.17187603 22.26955358 41.61718927 22.265625 44.0625 C22.26967346 45.2270874 22.27372192 46.3916748 22.27789307 47.59155273 C22.27158875 48.66606689 22.26528442 49.74058105 22.25878906 50.84765625 C22.25640228 52.2709021 22.25640228 52.2709021 22.25396729 53.72290039 C22 56 22 56 20 58 C16.6864424 58.44804715 13.34040137 58.32409862 10 58.3125 C9.071875 58.32861328 8.14375 58.34472656 7.1875 58.36132812 C6.300625 58.36197266 5.41375 58.36261719 4.5 58.36328125 C3.27796875 58.36775269 3.27796875 58.36775269 2.03125 58.37231445 C1.3609375 58.24945068 0.690625 58.12658691 0 58 C-2.19002909 54.71495636 -2.25211112 53.74458679 -2.25878906 49.93359375 C-2.26509338 48.90242432 -2.27139771 47.87125488 -2.27789307 46.80883789 C-2.2738446 45.69629639 -2.26979614 44.58375488 -2.265625 43.4375 C-2.26753845 42.29466553 -2.2694519 41.15183105 -2.27142334 39.97436523 C-2.27278505 37.55680115 -2.26908964 35.13922975 -2.26074219 32.72167969 C-2.25004274 29.01480736 -2.26063826 25.3084197 -2.2734375 21.6015625 C-2.2721159 19.25520726 -2.26955351 16.90885232 -2.265625 14.5625 C-2.26967346 13.4499585 -2.27372192 12.33741699 -2.27789307 11.19116211 C-2.27158875 10.15999268 -2.26528442 9.12882324 -2.25878906 8.06640625 C-2.25719788 7.15834229 -2.25560669 6.25027832 -2.25396729 5.31469727 C-2 3 -2 3 0 0 Z " fill="#5E4F5D" transform="translate(184,417)"/>
<path d="M0 0 C0.84175781 -0.00257813 1.68351562 -0.00515625 2.55078125 -0.0078125 C3.87142578 0.00378906 3.87142578 0.00378906 5.21875 0.015625 C6.09917969 0.00789063 6.97960937 0.00015625 7.88671875 -0.0078125 C8.72847656 -0.00523437 9.57023437 -0.00265625 10.4375 0 C11.59668945 0.00338379 11.59668945 0.00338379 12.77929688 0.00683594 C14.71875 0.265625 14.71875 0.265625 16.71875 2.265625 C16.97271729 4.54272461 16.97271729 4.54272461 16.97753906 7.41796875 C16.98384338 8.49248291 16.99014771 9.56699707 16.99664307 10.67407227 C16.9925946 11.83865967 16.98854614 13.00324707 16.984375 14.203125 C16.98628845 15.39413818 16.9882019 16.58515137 16.99017334 17.81225586 C16.9915363 20.33414928 16.98783216 22.85604969 16.97949219 25.37792969 C16.96879453 29.24950849 16.97938406 33.12062322 16.9921875 36.9921875 C16.99086593 39.43750103 16.98830358 41.88281427 16.984375 44.328125 C16.98842346 45.4927124 16.99247192 46.6572998 16.99664307 47.85717773 C16.99033875 48.93169189 16.98403442 50.00620605 16.97753906 51.11328125 C16.97515228 52.5365271 16.97515228 52.5365271 16.97271729 53.98852539 C16.71875 56.265625 16.71875 56.265625 14.71875 58.265625 C12.77929687 58.52441406 12.77929687 58.52441406 10.4375 58.53125 C9.59574219 58.53382813 8.75398438 58.53640625 7.88671875 58.5390625 C7.00628906 58.53132813 6.12585938 58.52359375 5.21875 58.515625 C4.33832031 58.52335937 3.45789063 58.53109375 2.55078125 58.5390625 C1.70902344 58.53648437 0.86726563 58.53390625 0 58.53125 C-0.77279297 58.52899414 -1.54558594 58.52673828 -2.34179688 58.52441406 C-4.28125 58.265625 -4.28125 58.265625 -6.28125 56.265625 C-6.53521729 53.98852539 -6.53521729 53.98852539 -6.54003906 51.11328125 C-6.54634338 50.03876709 -6.55264771 48.96425293 -6.55914307 47.85717773 C-6.5550946 46.69259033 -6.55104614 45.52800293 -6.546875 44.328125 C-6.54878845 43.13711182 -6.5507019 41.94609863 -6.55267334 40.71899414 C-6.5540363 38.19710072 -6.55033216 35.67520031 -6.54199219 33.15332031 C-6.53129453 29.28174151 -6.54188406 25.41062678 -6.5546875 21.5390625 C-6.55336593 19.09374897 -6.55080358 16.64843573 -6.546875 14.203125 C-6.55092346 13.0385376 -6.55497192 11.8739502 -6.55914307 10.67407227 C-6.55283875 9.59955811 -6.54653442 8.52504395 -6.54003906 7.41796875 C-6.53844788 6.46913818 -6.53685669 5.52030762 -6.53521729 4.54272461 C-6.05553599 0.24184743 -3.78761372 0.01105642 0 0 Z " fill="#60515F" transform="translate(317.28125,416.734375)"/>
<path d="M0 0 C24.42 0 48.84 0 74 0 C72 14 72 14 70 20 C58.37548234 25.68824193 45.18188875 21.00573156 33.6875 17.41015625 C26.38776495 15.1678802 19.71850353 14.87061955 12.125 14.9375 C11.15046875 14.94201172 10.1759375 14.94652344 9.171875 14.95117188 C6.78122332 14.96289076 4.3906035 14.98082404 2 15 C1.34 10.05 0.68 5.1 0 0 Z " fill="#F1E2DD" transform="translate(219,38)"/>
<path d="M0 0 C24.09 0 48.18 0 73 0 C73 5.28 73 10.56 73 16 C48.91 16 24.82 16 0 16 C0 10.72 0 5.44 0 0 Z " fill="#716470" transform="translate(222,438)"/>
<path d="M0 0 C3.58485471 0.94742589 6.23500641 3.08343134 9.109375 5.36328125 C11.08506436 6.78241184 11.08506436 6.78241184 13.25 6.421875 C15.31745106 5.52153341 16.72510993 4.47448159 18.4375 3.015625 C22.51298907 -0.00812496 25.18882102 -0.07743946 30.1875 0.578125 C32.625 1.703125 32.625 1.703125 34.1875 3.578125 C35.29128918 6.96307849 35.58688301 8.72527587 34.0625 11.98046875 C31.80936658 15.10199734 29.35890632 17.00215674 26.25 19.265625 C25.20972656 20.03261719 24.16945312 20.79960937 23.09765625 21.58984375 C18.12073953 24.99018014 14.36880563 26.65011775 8.1875 25.578125 C5.33159044 24.29885022 2.89669132 22.60633166 0.375 20.765625 C-0.27919922 20.31380859 -0.93339844 19.86199219 -1.60742188 19.39648438 C-9.40981005 13.93720358 -9.40981005 13.93720358 -10.8125 9.203125 C-10.8125 5.578125 -10.8125 5.578125 -8.875 2.640625 C-5.76876101 0.54866813 -3.7607108 -0.19943163 0 0 Z " fill="#010001" transform="translate(69.8125,281.421875)"/>
</svg>
